<?xml version="1.0" encoding="UTF-8" standalone="no"?>
<!-- Created with Inkscape (http://www.inkscape.org/) -->

<svg
   xmlns:dc="http://purl.org/dc/elements/1.1/"
   xmlns:cc="http://creativecommons.org/ns#"
   xmlns:rdf="http://www.w3.org/1999/02/22-rdf-syntax-ns#"
   xmlns:svg="http://www.w3.org/2000/svg"
   xmlns="http://www.w3.org/2000/svg"
   xmlns:xlink="http://www.w3.org/1999/xlink"
   xmlns:sodipodi="http://sodipodi.sourceforge.net/DTD/sodipodi-0.dtd"
   xmlns:inkscape="http://www.inkscape.org/namespaces/inkscape"
   width="400"
   height="150"
   id="svg2"
   version="1.1"
   inkscape:version="0.48.2 r9819"
   inkscape:export-filename="/Users/snow/Documents/Cantas-real/images/logo.png"
   inkscape:export-xdpi="90"
   inkscape:export-ydpi="90"
   sodipodi:docname="cantas-login-header.svg">
  <defs
     id="defs4" />
  <sodipodi:namedview
     id="base"
     pagecolor="#ffffff"
     bordercolor="#666666"
     borderopacity="1.0"
     inkscape:pageopacity="0.0"
     inkscape:pageshadow="2"
     inkscape:zoom="1"
     inkscape:cx="314.85937"
     inkscape:cy="17.626016"
     inkscape:document-units="px"
     inkscape:current-layer="layer1"
     showgrid="false"
     showguides="true"
     inkscape:guide-bbox="true"
     inkscape:window-width="1440"
     inkscape:window-height="773"
     inkscape:window-x="0"
     inkscape:window-y="0"
     inkscape:window-maximized="0" />
  <metadata
     id="metadata7">
    <rdf:RDF>
      <cc:Work
         rdf:about="">
        <dc:format>image/svg+xml</dc:format>
        <dc:type
           rdf:resource="http://purl.org/dc/dcmitype/StillImage" />
        <dc:title></dc:title>
      </cc:Work>
    </rdf:RDF>
  </metadata>
  <g
     inkscape:groupmode="layer"
     id="layer4"
     inkscape:label="2"
     transform="translate(0,-50)">
    <text
       xml:space="preserve"
       style="font-size:110px;font-style:normal;font-weight:normal;line-height:125%;letter-spacing:0px;word-spacing:0px;fill:#000080;fill-opacity:1;stroke:none;font-family:Sans"
       x="125.73222"
       y="157.10141"
       id="text3992"
       sodipodi:linespacing="125%"
       inkscape:export-filename="/Users/snow/Documents/Cantas-real/images/login-header.png"
       inkscape:export-xdpi="90"
       inkscape:export-ydpi="90"><tspan
         sodipodi:role="line"
         id="tspan3994"
         x="125.73222"
         y="157.10141"
         style="font-size:110px;font-style:normal;font-variant:normal;font-weight:bold;font-stretch:normal;fill:#000080;font-family:Overpass-Rehinted;-inkscape-font-specification:Overpass-Rehinted Bold">antas</tspan></text>
    <flowRoot
       xml:space="preserve"
       id="flowRoot3996"
       style="font-size:40px;font-style:normal;font-weight:normal;line-height:125%;letter-spacing:0px;word-spacing:0px;fill:#000000;fill-opacity:1;stroke:none;font-family:Sans"
       transform="translate(0,175)"><flowRegion
         id="flowRegion3998"><rect
           id="rect4000"
           width="156"
           height="77"
           x="-34.5"
           y="-28" /></flowRegion><flowPara
         id="flowPara4002" /></flowRoot>    <path
       style="font-size:40px;font-style:normal;font-weight:normal;line-height:125%;letter-spacing:0px;word-spacing:0px;fill:#000080;fill-opacity:1;stroke:none;font-family:Sans"
       d="m 578.5,38.5625 -14.28125,6.8125 0,16.375 -8.0625,0 0,12.59375 8.0625,0 0,13.65625 14.28125,0 0,-13.65625 12.53125,0 0,-12.59375 -12.53125,0 0,-23.1875 z M 463.125,60.46875 c -8.34312,6e-5 -15.6133,2.22076 -21.84375,6.625 L 445.6875,78.625 c 4.94139,-3.75972 10.21742,-5.62495 15.875,-5.625 6.26624,5e-5 9.40621,2.96228 9.40625,8.90625 l 0,2.625 c -3.40173,-1.75452 -7.43428,-2.62496 -12.125,-2.625 -5.69338,4e-5 -10.60093,1.59444 -14.71875,4.78125 -0.53919,0.41729 -1.06266,0.84426 -1.53125,1.3125 l 42.4375,0 0,-5.875 c -5e-5,-4.54749 -0.64393,-8.33134 -1.96875,-11.375 -1.32492,-3.04357 -3.14132,-5.26427 -5.46875,-6.625 -2.29171,-1.39643 -4.58793,-2.34239 -6.84375,-2.84375 -2.22009,-0.53705 -4.76045,-0.81244 -7.625,-0.8125 z m 65.0625,0 c -6.15888,6e-5 -10.87112,2.09185 -14.09375,6.28125 l 0,-5 -14.34375,0 0,26.25 14.34375,0 0,-3.46875 c -2e-5,-6.87496 3.18878,-10.31246 9.5625,-10.3125 2.54228,4e-5 4.63864,0.87049 6.25,2.625 1.6471,1.71879 2.46871,4.38806 2.46875,7.96875 l 0,3.1875 14.28125,0 0,-5.28125 c -5e-5,-7.77014 -1.79432,-13.42834 -5.375,-16.9375 -3.54497,-3.54487 -7.90173,-5.31244 -13.09375,-5.3125 z m 96.28125,0 c -8.34312,6e-5 -15.6133,2.22076 -21.84375,6.625 l 4.40625,11.53125 c 4.94139,-3.75972 10.24867,-5.62495 15.90625,-5.625 6.26624,5e-5 9.37496,2.96228 9.375,8.90625 l 0,2.625 c -3.40173,-1.75452 -7.43428,-2.62496 -12.125,-2.625 -5.69338,4e-5 -10.60093,1.59444 -14.71875,4.78125 -0.53866,0.41688 -1.0318,0.84477 -1.5,1.3125 l 42.4375,0 0,-5.875 c -5e-5,-4.54749 -0.67518,-8.33134 -2,-11.375 -1.32492,-3.04357 -3.14132,-5.26427 -5.46875,-6.625 -2.29171,-1.39643 -4.58793,-2.34239 -6.84375,-2.84375 -2.22009,-0.53705 -4.76045,-0.81244 -7.625,-0.8125 z m 54.25,0 c -5.8008,6e-5 -10.57944,1.44342 -14.375,4.34375 -3.75977,2.90044 -5.65626,6.86658 -5.65625,11.84375 -10e-6,4.54756 1.39452,8.08272 4.1875,10.625 0.26995,0.24573 0.5803,0.47771 0.875,0.71875 l 28.375,0 c -2.46775,-1.55871 -5.48017,-2.98125 -9,-4.3125 -2.64977,-0.96676 -4.56838,-1.71741 -5.75,-2.21875 -1.14586,-0.50127 -2.24286,-1.17184 -3.28125,-2.03125 -1.03843,-0.89514 -1.53127,-1.81441 -1.53125,-2.78125 -2e-5,-1.1816 0.5729,-2.13212 1.71875,-2.8125 1.14581,-0.7161 2.6113,-1.06245 4.4375,-1.0625 3.97458,5e-5 7.41663,1.49223 10.28125,4.5 l 9.75,-7.875 c -4.83402,-5.94396 -11.50915,-8.93744 -20.03125,-8.9375 z"
       id="text3121"
       inkscape:connector-curvature="0" />
  </g>
  <g
     inkscape:groupmode="layer"
     id="layer3"
     inkscape:label="Layer"
     transform="translate(0,125)" />
  <g
     inkscape:label="Layer 1"
     inkscape:groupmode="layer"
     id="layer1"
     transform="translate(0,-902.3622)">
    <rect
       style="fill:#000080;fill-opacity:1;stroke:none"
       id="rect3849"
       width="16.130226"
       height="25.539524"
       x="105.14503"
       y="-953.43011"
       ry="2.286423"
       transform="scale(1,-1)"
       inkscape:export-filename="/Users/snow/Documents/Cantas-real/images/login-header.png"
       inkscape:export-xdpi="90"
       inkscape:export-ydpi="90" />
    <use
       x="0"
       y="0"
       xlink:href="#rect3849"
       id="use3851"
       transform="translate(-51.605349,-11.055753)"
       width="25"
       height="25"
       style="fill:#000080"
       inkscape:export-filename="/Users/snow/Documents/Cantas-real/images/login-header.png"
       inkscape:export-xdpi="90"
       inkscape:export-ydpi="90" />
    <use
       x="0"
       y="0"
       xlink:href="#use3851"
       id="use3853"
       transform="translate(-25.802679,11.521105)"
       width="25"
       height="25"
       style="fill:#000080"
       inkscape:export-filename="/Users/snow/Documents/Cantas-real/images/login-header.png"
       inkscape:export-xdpi="90"
       inkscape:export-ydpi="90" />
    <use
       x="0"
       y="0"
       xlink:href="#use3853"
       id="use3855"
       transform="matrix(1,0,0,1.4043931,-18.823543,-343.19345)"
       width="25"
       height="25"
       style="fill:#000080"
       inkscape:export-filename="/Users/snow/Documents/Cantas-real/images/login-header.png"
       inkscape:export-xdpi="90"
       inkscape:export-ydpi="90" />
    <use
       x="0"
       y="0"
       xlink:href="#use3853"
       id="use3857"
       transform="translate(0,77.016375)"
       width="25"
       height="25"
       style="fill:#000080"
       inkscape:export-filename="/Users/snow/Documents/Cantas-real/images/login-header.png"
       inkscape:export-xdpi="90"
       inkscape:export-ydpi="90" />
    <use
       x="0"
       y="0"
       xlink:href="#use3857"
       id="use3859"
       transform="translate(25.802673,10.685936)"
       width="25"
       height="25"
       style="fill:#000080"
       inkscape:export-filename="/Users/snow/Documents/Cantas-real/images/login-header.png"
       inkscape:export-xdpi="90"
       inkscape:export-ydpi="90" />
    <use
       x="0"
       y="0"
       xlink:href="#use3859"
       id="use3861"
       transform="translate(51.605349,-11.473343)"
       width="25"
       height="25"
       style="fill:#000080"
       inkscape:export-filename="/Users/snow/Documents/Cantas-real/images/login-header.png"
       inkscape:export-xdpi="90"
       inkscape:export-ydpi="90" />
    <path
       sodipodi:type="arc"
       style="fill:#000080;fill-opacity:1;stroke:none"
       id="path3863"
       sodipodi:cx="13.744388"
       sodipodi:cy="13.376932"
       sodipodi:rx="1.4584078"
       sodipodi:ry="1.4584078"
       d="m 15.202795,13.376932 a 1.4584078,1.4584078 0 1 1 -2.916815,0 1.4584078,1.4584078 0 1 1 2.916815,0 z"
       transform="matrix(5.3767418,0,0,5.3767418,3.9056706,904.31398)"
       inkscape:export-filename="/Users/snow/Documents/Cantas-real/images/login-header.png"
       inkscape:export-xdpi="90"
       inkscape:export-ydpi="90" />
    <rect
       style="fill:#000080;fill-opacity:1;stroke:none"
       id="rect3865"
       width="5.7028956"
       height="28.514479"
       x="-979.328"
       y="45.251694"
       ry="0"
       transform="matrix(0,-1,1,0,0,0)"
       inkscape:export-filename="/Users/snow/Documents/Cantas-real/images/login-header.png"
       inkscape:export-xdpi="90"
       inkscape:export-ydpi="90" />
    <use
       x="0"
       y="0"
       xlink:href="#rect3865"
       id="use3980"
       transform="matrix(0,-1,1,0,-898.43277,1050.718)"
       width="25"
       height="25"
       style="fill:#000080"
       inkscape:export-filename="/Users/snow/Documents/Cantas-real/images/login-header.png"
       inkscape:export-xdpi="90"
       inkscape:export-ydpi="90" />
    <use
       x="0"
       y="0"
       xlink:href="#use3851"
       id="use3988"
       transform="translate(25.802675,0)"
       width="200"
       height="200"
       style="fill:#000080"
       inkscape:export-filename="/Users/snow/Documents/Cantas-real/images/login-header.png"
       inkscape:export-xdpi="90"
       inkscape:export-ydpi="90" />
    <use
       x="0"
       y="0"
       xlink:href="#use3859"
       id="use3990"
       transform="translate(25.80267,0)"
       width="200"
       height="200"
       style="fill:#000080"
       inkscape:export-filename="/Users/snow/Documents/Cantas-real/images/login-header.png"
       inkscape:export-xdpi="90"
       inkscape:export-ydpi="90" />
  </g>
</svg>
